<?xml version="1.0" encoding="UTF-8"?>
<svg id="Layer_2" data-name="Layer 2" xmlns="http://www.w3.org/2000/svg" viewBox="0 0 501.43 65.9">
  <defs>
    <style>
      .cls-1 {
        fill: #3c3c3c;
      }

      .cls-2 {
        fill: gray;
      }

      .cls-3 {
        fill: #474747;
      }

      .cls-4 {
        fill: #939393;
      }

      .cls-5 {
        fill: #cecece;
      }

      .cls-6 {
        fill: #adadad;
      }

      .cls-7 {
        fill: #7c7c7c;
      }

      .cls-8 {
        fill: #d6d6d6;
      }

      .cls-9 {
        fill: #e3e3e3;
      }

      .cls-10 {
        fill: #ababab;
      }

      .cls-11 {
        fill: #efefef;
      }

      .cls-12 {
        fill: #e4e4e4;
      }

      .cls-13 {
        fill: #7a7a7a;
      }

      .cls-14 {
        fill: #e6e6e6;
      }

      .cls-15 {
        fill: #5b5b5b;
      }

      .cls-16 {
        fill: #bbb;
      }

      .cls-17 {
        fill: #979797;
      }

      .cls-18 {
        fill: #1e1e1e;
      }

      .cls-19 {
        fill: #e5e5e5;
      }

      .cls-20 {
        fill: #929292;
      }

      .cls-21 {
        fill: #757575;
      }

      .cls-22 {
        fill: #c4c4c4;
      }

      .cls-23 {
        fill: #b1b1b1;
      }

      .cls-24 {
        fill: #c9c9c9;
      }

      .cls-25 {
        fill: #bababa;
      }

      .cls-26 {
        fill: #4e4e4e;
      }

      .cls-27 {
        fill: #656565;
      }

      .cls-28 {
        fill: #a6a6a6;
      }

      .cls-29 {
        fill: #c7c7c7;
      }

      .cls-30 {
        fill: #a0a0a0;
      }

      .cls-31 {
        fill: #dadada;
      }

      .cls-32 {
        fill: #b3b3b3;
      }

      .cls-33 {
        fill: #575757;
      }

      .cls-34 {
        fill: #212121;
      }

      .cls-35 {
        fill: #3f3f3f;
      }

      .cls-36 {
        fill: #b7b7b7;
      }

      .cls-37 {
        fill: #fff;
      }

      .cls-38 {
        fill: #868686;
      }

      .cls-39 {
        fill: #a3a3a3;
      }

      .cls-40 {
        fill: #242424;
      }

      .cls-41 {
        fill: #cacaca;
      }

      .cls-42 {
        fill: #d7d7d7;
      }

      .cls-43 {
        fill: silver;
      }

      .cls-44 {
        fill: #959595;
      }

      .cls-45 {
        fill: #7e7e7e;
      }

      .cls-46 {
        fill: #acacac;
      }

      .cls-47 {
        fill: #f7f7f7;
      }

      .cls-48 {
        fill: #f8f8f8;
      }

      .cls-49 {
        fill: #f0f0f0;
      }

      .cls-50 {
        fill: #222;
      }

      .cls-51 {
        fill: #e2e2e2;
      }

      .cls-52 {
        fill: #dbdbdb;
      }

      .cls-53 {
        fill: #b9b9b9;
      }

      .cls-54 {
        fill: #9e9e9e;
      }

      .cls-55 {
        fill: #494949;
      }

      .cls-56 {
        fill: #c2c2c2;
      }

      .cls-57 {
        fill: #6e6e6e;
      }

      .cls-58 {
        fill: #a4a4a4;
      }

      .cls-59 {
        fill: #a1a1a1;
      }

      .cls-60 {
        fill: #9c9c9c;
      }

      .cls-61 {
        fill: #616161;
      }

      .cls-62 {
        fill: #c8c8c8;
      }

      .cls-63 {
        fill: #fdfdfd;
      }

      .cls-64 {
        fill: #b2b2b2;
      }

      .cls-65 {
        fill: #4c4c4c;
      }

      .cls-66 {
        fill: #e8e8e8;
      }

      .cls-67 {
        fill: #4d4d4d;
      }
    </style>
  </defs>
  <g id="Logo">
    <g>
      <path class="cls-37" d="M120.26,63.19V16.88h10.61v46.31h-10.61ZM130.87,37.43l-3.67-1.83c0-5.85,1.3-10.6,3.91-14.23,2.6-3.63,6.54-5.45,11.82-5.45,2.32,0,4.4.42,6.27,1.25,1.86.84,3.6,2.19,5.21,4.05l-6.95,7.14c-.84-.9-1.77-1.54-2.8-1.93-1.03-.39-2.22-.58-3.57-.58-2.96,0-5.4.93-7.33,2.8-1.93,1.87-2.89,4.79-2.89,8.78Z"/>
      <path class="cls-37" d="M180.17,64.16c-3.6,0-6.82-.84-9.65-2.51-2.83-1.67-5.03-3.99-6.61-6.95-1.58-2.96-2.36-6.37-2.36-10.23v-26.14h4.92v25.95c0,3.02.56,5.68,1.69,7.96,1.12,2.28,2.72,4.07,4.78,5.35,2.06,1.29,4.47,1.93,7.24,1.93,4.12,0,7.41-1.4,9.89-4.2,2.48-2.8,3.71-6.48,3.71-11.05v-25.95h4.92v26.14c0,3.86-.79,7.27-2.36,10.23-1.58,2.96-3.76,5.27-6.56,6.95-2.8,1.67-6,2.51-9.6,2.51Z"/>
      <path class="cls-37" d="M212.1,63.19V18.33h4.92v44.86h-4.92ZM245.87,63.19v-26.63c0-4.37-1.29-7.91-3.86-10.61-2.57-2.7-5.98-4.05-10.23-4.05-2.89,0-5.45.63-7.67,1.88-2.22,1.25-3.96,2.98-5.21,5.16-1.25,2.19-1.88,4.73-1.88,7.62l-2.51-1.45c0-3.41.8-6.45,2.41-9.12,1.61-2.67,3.79-4.78,6.56-6.32,2.76-1.54,5.92-2.32,9.45-2.32s6.64.82,9.31,2.46c2.67,1.64,4.74,3.88,6.22,6.71,1.48,2.83,2.22,5.98,2.22,9.45v27.21h-4.82Z"/>
      <path class="cls-37" d="M266.8,7.91c-1.09,0-2.01-.4-2.75-1.21-.74-.8-1.11-1.75-1.11-2.85s.37-2.01,1.11-2.75,1.65-1.11,2.75-1.11,2.03.37,2.8,1.11c.77.74,1.16,1.66,1.16,2.75s-.39,2.04-1.16,2.85c-.77.81-1.71,1.21-2.8,1.21ZM264.39,63.19V18.33h4.82v44.86h-4.82Z"/>
      <path class="cls-37" d="M299.89,63.19l-20.94-44.86h5.4l18.52,40.71h-2.99l18.62-40.71h5.31l-21.03,44.86h-2.89Z"/>
      <path class="cls-37" d="M351.89,64.16c-4.44,0-8.44-1.03-12.01-3.09-3.57-2.06-6.38-4.86-8.44-8.39-2.06-3.54-3.09-7.53-3.09-11.96s1-8.41,2.99-11.91c1.99-3.5,4.74-6.29,8.25-8.35,3.5-2.06,7.41-3.09,11.72-3.09s7.73.92,10.85,2.75c3.12,1.83,5.56,4.36,7.33,7.57,1.77,3.22,2.65,6.91,2.65,11.09,0,.39-.03.88-.1,1.5-.07.61-.16,1.37-.29,2.27h-39.94v-4.25h37.14l-1.64,1.35c.13-3.54-.45-6.64-1.74-9.31-1.29-2.67-3.15-4.74-5.6-6.22-2.45-1.48-5.37-2.22-8.78-2.22s-6.66.79-9.36,2.36c-2.7,1.58-4.81,3.75-6.32,6.51-1.51,2.77-2.27,5.98-2.27,9.65,0,3.86.79,7.22,2.36,10.08,1.58,2.86,3.78,5.08,6.61,6.66,2.83,1.58,6.14,2.36,9.94,2.36,2.89,0,5.58-.53,8.06-1.59,2.48-1.06,4.55-2.65,6.22-4.78l3.28,3.18c-2.06,2.44-4.65,4.36-7.77,5.74-3.12,1.38-6.48,2.07-10.08,2.07Z"/>
      <path class="cls-37" d="M383.34,63.19V18.33h4.92v44.86h-4.92ZM388.26,36.37l-2.41-.87c0-5.72,1.45-10.18,4.34-13.36,2.89-3.18,6.69-4.78,11.38-4.78,2.19,0,4.23.39,6.13,1.16,1.9.77,3.65,2.03,5.26,3.76l-3.28,3.47c-1.22-1.35-2.54-2.32-3.96-2.89-1.42-.58-3.09-.87-5.02-.87-3.67,0-6.66,1.24-8.97,3.71-2.32,2.48-3.47,6.03-3.47,10.66Z"/>
      <path class="cls-37" d="M433.41,64.16c-2.44,0-4.74-.34-6.9-1.01-2.16-.68-4.12-1.62-5.89-2.85-1.77-1.22-3.33-2.64-4.68-4.25l3.28-3.28c1.8,2.38,3.91,4.13,6.32,5.26,2.41,1.13,5.06,1.69,7.96,1.69,3.34,0,5.98-.68,7.91-2.03s2.89-3.25,2.89-5.69c0-2.19-.61-3.91-1.83-5.16-1.22-1.25-2.81-2.23-4.78-2.94-1.96-.71-4.02-1.38-6.17-2.03-2.16-.64-4.21-1.41-6.17-2.31-1.96-.9-3.55-2.15-4.78-3.76-1.22-1.61-1.83-3.76-1.83-6.46,0-2.38.61-4.47,1.83-6.27,1.22-1.8,2.94-3.2,5.16-4.2,2.22-1,4.84-1.5,7.86-1.5,3.34,0,6.35.58,9.02,1.74,2.67,1.16,4.81,2.86,6.42,5.11l-3.18,3.28c-1.29-1.8-3.02-3.2-5.21-4.2-2.19-1-4.63-1.5-7.33-1.5-3.22,0-5.66.68-7.33,2.03-1.67,1.35-2.51,3.09-2.51,5.21,0,1.99.61,3.57,1.83,4.73,1.22,1.16,2.81,2.06,4.78,2.7,1.96.64,4.02,1.27,6.17,1.88,2.15.61,4.21,1.4,6.17,2.36,1.96.96,3.55,2.28,4.78,3.96,1.22,1.67,1.83,3.96,1.83,6.85,0,3.86-1.42,6.93-4.24,9.21-2.83,2.28-6.63,3.42-11.38,3.42Z"/>
      <path class="cls-37" d="M481.17,64.16c-4.44,0-8.44-1.03-12.01-3.09-3.57-2.06-6.38-4.86-8.44-8.39-2.06-3.54-3.09-7.53-3.09-11.96s1-8.41,2.99-11.91c1.99-3.5,4.74-6.29,8.25-8.35,3.5-2.06,7.41-3.09,11.72-3.09s7.73.92,10.85,2.75c3.12,1.83,5.56,4.36,7.33,7.57,1.77,3.22,2.65,6.91,2.65,11.09,0,.39-.03.88-.1,1.5-.07.61-.16,1.37-.29,2.27h-39.94v-4.25h37.14l-1.64,1.35c.13-3.54-.45-6.64-1.74-9.31-1.29-2.67-3.15-4.74-5.6-6.22-2.45-1.48-5.37-2.22-8.78-2.22s-6.66.79-9.36,2.36c-2.7,1.58-4.81,3.75-6.32,6.51-1.51,2.77-2.27,5.98-2.27,9.65,0,3.86.79,7.22,2.36,10.08,1.58,2.86,3.78,5.08,6.61,6.66,2.83,1.58,6.14,2.36,9.94,2.36,2.89,0,5.58-.53,8.06-1.59,2.48-1.06,4.55-2.65,6.22-4.78l3.28,3.18c-2.06,2.44-4.65,4.36-7.77,5.74-3.12,1.38-6.48,2.07-10.08,2.07Z"/>
    </g>
    <g id="Layer_3" data-name="Layer 3">
      <path class="cls-37" d="M98.94,16.88v26.43c0,3.41-.82,6.03-2.46,7.86s-4,2.75-7.09,2.75c-1.99,0-3.71-.42-5.16-1.25-1.45-.84-2.54-2.04-3.28-3.62-.74-1.58-1.11-3.49-1.11-5.74v-26.43h-10.61v1.33c1.31.27,2.54.64,3.64,1.15,2.33,1.07,3.45,3.42,2.77,5.9-.85,3.14-3.35,6.27-6.42,9.14v9.4c0,3.99.85,7.51,2.56,10.56,1.7,3.06,4.08,5.45,7.14,7.19,3.05,1.74,6.54,2.6,10.47,2.6s7.49-.85,10.52-2.56c3.02-1.7,5.39-4.08,7.09-7.14,1.7-3.05,2.56-6.61,2.56-10.66v-26.92h-10.61Z"/>
    </g>
    <g>
      <g>
        <path class="cls-47" d="M11.92,24.19c-.61.56-.53,1.35-.76,2.02-.1-.74-.12-1.37-.54-1.87s-1.04-.48-1.81-.63c.64-.27,1.27-.19,1.69-.6s.61-1.03.56-1.78c-.09-.32.29-.32.21,0,.03.68.15,1.25.51,1.66.41.46,1.03.45,1.76.68-.54.2-1.15.07-1.63.52Z"/>
        <g>
          <path class="cls-66" d="M7.49,43.93l-1.75,2.18c-.14-.12-.07-.32,0-.54.05-.17-.22-.23-.33-.15l1.84-1.85.24.36Z"/>
          <g>
            <path class="cls-13" d="M18.46,45.61c.38.42.77.83,1.17,1.22.4.15.52.61.75.98.49.79,1.27,1.19,1.91,1.75-.54-.02-1.25.13-1.8-.16-3.12-1.64-2.68-3.97-2.9-4.47.15.09.38.04.59,0l.28.68Z"/>
            <path class="cls-42" d="M50.27,39.46c-.57.29-1.08.79-1.78.93l.39-3.06c0-.41.32-.58.94-.49.11-.3.28-.48.51-.54.14,1.02.03,2.09-.05,3.17Z"/>
            <path class="cls-43" d="M27.62,30.99c-.66.72-2.11.73-1.22-.39,1.29-1.34,2.71-2.73,4.75-3.4-1.24,1.2-2.65,2.28-3.53,3.78Z"/>
            <path class="cls-30" d="M48.92,32.32c.12.13.22.21.31.36.28,1.75.61,3.09-.31,2.65l-.12.68c-.09-1.77-.55-3.41-1.2-5.21l1.32,1.52Z"/>
            <path class="cls-9" d="M27.62,30.99l-1.22,2.09c.1-.68-.58.09-1.37-.21-.1-.24.02-.52.34-.83l.27-.74.77-.68c-.04.19-.15.43-.03.5.35.23.85-.28,1.25-.11Z"/>
          </g>
        </g>
        <g>
          <path class="cls-48" d="M15.03,62.16c.24.88,1.02,1.01,1.8,1.39-1.04.06-1.66.61-1.82,1.45-.06.29-.05.62-.29.91.02-.78-.06-1.42-.53-1.86-.44-.42-1.06-.51-1.74-.41.25-.49,1.15-.05,1.91-.94.4-.47.34-.99.37-1.65.24.32.2.75.3,1.12Z"/>
          <path class="cls-14" d="M20.62,63.83c-.27-.4-.38-.59-.79-.8l.71-.67.68.67c-.37.19-.46.38-.6.8Z"/>
          <path class="cls-18" d="M23.51,57.77c-.42.14-.84.11-1.22.03-.07-.18.05-.61.17-.75.22-.26,1.01.16,1.09.48.02.07-.03.19-.05.24Z"/>
          <g>
            <path class="cls-11" d="M54.77,56.84c-1.24,1.23-2.58,2.39-4.06,3.34-1.01.64-2.06,1.36-3.19,1.85-2.25.96-4.4,1.53-6.69,1.85-.53.02-1.02,0-.49-.53l3.4-.93.33.27.6-.53c3.58-1.08,6.95-2.94,9.41-5.66l.41.08.28.27Z"/>
            <path class="cls-61" d="M29.48,56.73c.61.34,1.22.69,1.84,1.05.71.03,1.42.09,2.13.16.04,0,.12.03.16.02-.1.37-.47.32-.85.38l-2.95.49c-.01-.29-.23-.5-.48-.71l-1.64-1.4c.68-.16,1.22.02,1.78.02Z"/>
            <path class="cls-15" d="M23.51,57.77c1.01.72,2.17,1.17,3.39,1.42l-3.12-.34c-.15-.02-.3.03-.33.12-.41-.35-.96-.66-1.16-1.17.14-.42,1.02-.4,1.22-.03Z"/>
          </g>
        </g>
        <g>
          <path class="cls-49" d="M19.01,25.33l.11.18c-.58.69-1.09,1.43-1.51,2.23v.53c-.84,1.02-1.37,2.23-1.79,3.46l-.46.29c-.22.14-.29.02-.21-.35.87-2.35,2.03-4.59,3.59-6.55l.27.22Z"/>
          <path class="cls-25" d="M15.36,32.02c.48.31-.08,1.97-.64,2-.02,1.17-.08,2.34-.2,3.52l-.34.5c.15.33.17.59.07.79l-.4.08c-.11-.93.04-1.83.17-2.74.22-1.55.6-3.04,1.13-4.49.04.16.1.3.21.35Z"/>
          <path class="cls-31" d="M18.68,29.48c.14.25.1.98.06,1.37,0,.09-.11-1.72.39-1.57.15-.04.38-.02.4.1.02,2.26.72,2.85,2.11,1.75l.41.1c0-.18.06-.2.17-.06.41-.17.45-.05.24.33.04,1.33,1.2,2.55.81,3.94-.3,1.09-.21,2.15-.25,3.26-.11,2.92.28,6.5,2.06,8.57-.07.04-.14.12-.13.22,0,.07.06.15.12.25l.66,1.16c0,.57-.65.35-1.06.13-.25-.14-3.08-3.67-3.16-3.94l.05-.88c-.32-.06-.53-.36-.63-.89-.31-.37-.4-.69-.26-.97l-.23-.94,1.1-.36c.13-.04.35.08.39,0,.05-.1,0-.4-.05-.48-.16-.24-1.23.72-1.53.28-.49-.7-.51-1.55-.7-2.27l-.14-1.28c.49-.2.9-.1,1.2.25l.27-.15.66-1.56c-.53.06-.77-.37-.8-.91-.72-.29-1.44-1.31-.66-1.83-.22-.07-.33-.27-.32-.59-1.32-.15-2.41-2.02-1.76-3.16.42-.74.77-.68.58.12Z"/>
          <path class="cls-28" d="M25.72,48.9l.45.45-2.99.66-.9-.45c-1.3-.22-2.48-1.47-2.66-2.73l-.12-.37,1.49-1.4c.01-.51.2-.8.56-.86.01.1-.03.36.07.48l2.82,3.69c.3.4.9.71,1.28.53Z"/>
          <path class="cls-4" d="M28.33,24.11c-.04.14.1.39.01.5-.12.16-.37.17-.53.24l-2.8,1.33c-.13-.05-.3-.09-.42-.2.54-.73-.34-.95.08-2.03-.03-.49.32-1.49.77-.97.79-.4,2.61.27,2.88,1.12Z"/>
          <g>
            <path class="cls-63" d="M60.04,33.08c-2.65,2.06-5.43,3.93-8.38,5.67l-1.39.71c-.39-.36-.34-1.66-.22-2.19.28-.17.37-.49.27-.97l-.4-.34c-.09-1.12-.33-2.21-.69-3.27-.42.22-.52.05-.31-.36-.04-.85-.5-1.53-.95-2.29-2.49-4.17-6.93-6.46-11.82-5.87s-8.25,3.33-10.5,7.14c.45.23.21.81-.27.74-.41.47-.52.75-.34.83.35-.42,1.86-.68,1.37.21-1.61,3.35-2.36,7.07-1.77,10.84l.86,3.72c-.23-.14-.29-.3-.4-.37-.98-.12-1.5-1.81-1.78-2.72-.93-3.03-.74-6.67-.29-9.75-.13-.76-.35-1.51-.68-2.23-.26-.55-.22-.9.14-1.06l-.1-.19.89-1.11c-.02-1.34.23-2.56.74-3.66-.67-.29-1.03-2.23-.68-2.8.64-1.05,1.09.12.85.95.23.44.38.87.44,1.3.29-.36.45-.25.42.2,1.88-.11,3.21-.33,3.93-2.26.81-2.19-1.84-2.62-3.38-1.84l-.38-.16c-.08.04-.17.07-.25.07-.9-.02.86-1.77,1.16-1.87l-5.09,3.63-.4-.14c.17.66-.99,1.6-1.58,1.71-.33.32-.44.2-.27-.22,1.43-1.8,2.97-3.52,4.92-4.91,3.91-2.78,8.34-4.45,13.18-4.63,10.9-.41,20.65,6.72,23.73,17.1l-.52.41Z"/>
            <g>
              <path class="cls-62" d="M50.32,36.29l-.09.9c-.51-.02-.96-.05-1.36.13l-.07-1.32c-.06-.54.06-.9.38-1.08l-.25-1.96.3-.29c.64,1.11.91,2.36,1.09,3.62Z"/>
              <path class="cls-40" d="M25.01,26.19v-.38s2.97-1.37,2.97-1.37l.34-.33-.27-.24c.3-1.2-.9-1.27-1.78-1.27-.32.08-.64.08-.97,0,.01.34-.38.35-.66.35-.1.06-.24.19-.4.02.29-.46.58-.82.93-1.04.93-.58,2.23-.72,3.31-.26.84.35,1.06,1.31.85,2.12-.5,2-2.48,3.12-4.33,2.41Z"/>
              <path class="cls-45" d="M50.66,28.92l.31.18c.1.6.28.65.54.17.75.58,1.19,1.51,1.05,2.52-1.4.17-2.47-1.11-2.41-2.44.01-.33.31-.39.51-.42Z"/>
              <path class="cls-16" d="M20.22,25.16c-.81.81-1.55,1.69-2.23,2.65l-.39-.08c-.02-.35.13-.68.38-1.01l1.03-1.39,1.58-1.71s.16-.04.29.01c0,.65-.42,1.07-.66,1.53Z"/>
              <path class="cls-55" d="M46.38,23.08c-.71-.38-1.38-.86-1.98-1.38-.1-.64,1.96-.69,2.73,1.19-.25.17-.47.21-.76.2Z"/>
              <path class="cls-56" d="M35.94,19.72c-.59.33-1.58.18-1.96-.44-.22-.35.3-.55.48-.67.88-.33,2.21.2,1.48,1.11Z"/>
              <path class="cls-39" d="M35.94,19.72c-.13-.99-.61-.89-1.48-1.11.61-.39,1.39-.51,2.01-.11.28.18.28.56.12.81-.13.2-.37.26-.66.42Z"/>
              <path class="cls-17" d="M46.38,23.08c-.86-.05-1.84-.48-1.98-1.38.65-.11,1.54.67,1.98,1.38Z"/>
              <path class="cls-6" d="M51.51,29.26c-.05.52.26.93.26,1.58-.62-.49-1.11-1.15-1.1-1.92.46-.08.57.13.85.34Z"/>
              <path class="cls-57" d="M42.6,18.87c-.66.51-1.59.15-1.95-.54.67-.19,1.38-.04,1.95.54Z"/>
              <path class="cls-15" d="M55.66,33.18c-.41-.52-.31-1.43.32-1.72.21.39.29.68.31.98.02.26-.27.55-.63.73Z"/>
              <path class="cls-46" d="M24.99,28.61c.39.41-.47,1.08-.76.75-.24-.27.45-1.08.76-.75Z"/>
              <path class="cls-6" d="M52.27,37.53c-.4-.33-.48-.95-.06-1.41.33.31.43.85.06,1.41Z"/>
              <path class="cls-10" d="M25.03,32.86l-.7,1.31c-.05.1-.13.08-.17.06.32-.82.68-1.96,1.21-2.2l-.34.83Z"/>
              <path class="cls-22" d="M30.96,18.98c-.22.31-.66.67-.97.43-.07-.3.5-.71.85-.75.21-.03.32.17.12.32Z"/>
              <circle class="cls-53" cx="39.13" cy="21.45" r=".39"/>
            </g>
          </g>
          <path class="cls-58" d="M20.22,25.16l-1.18,2.28c-.18.35-.14.7-.1.97.53.05.06.91-.26,1.06.02-.17.01-.31-.13-.41-.3.8-.32,1.4-.05,2.12.21.56.94.84,1.65,1.07.15.17.08.65.02.85l-.08.46c-.56.1-.76.67-.58,1.72l-.34.21c-.16-.25-.29-.56-.51-.64-.39-.15-.74-.04-1.04.06-.21.23-.33.19-.53.04-.18.34-.41.45-.7.34-.5.52-.74.86-.91.83-.36-.07-.13-.61-.48-.85-.26-.21-.35-.63-.28-1.26l.64-2c.49-1.53,1.15-3.11,2.24-4.28l.59-.63c.62-1.03,1.71-2.42,2.03-1.94Z"/>
          <path class="cls-41" d="M21.64,35.85c-.56.47-.87,1.04-.93,1.71-.3.11-.6.02-1.02-.06l-.04,1.08c-.27-1-.44-2.04-.46-3.09,0-.57-.05-1.32.15-1.94.1-.22.76-.25.86-.45-.18.62.25,1.34.92,1.64.03.45.38.84.54,1.11Z"/>
          <g>
            <path class="cls-20" d="M19.18,35.49l.36.5c.06.86.09,1.73.1,2.59l.39.13c.09.68.28,1.32.56,1.93.94-.61,2.32-.55,1.33.72-.85.03-1.17.26-.97.69l-.28.28c-.12.26-.38.37-.78.32l.97,1.59c.32,1.09-.27,1.19-1.75.31-.1.37-.26.67-.46.89.09.29.05.37-.19.16-.39.08-.73-.36-.87-.68l-1.32-3.09c-.58.86-.32,1.76-.07,2.6l1.5,4.88-1.79.17c-1.65-3.3-2.19-6.97-2.06-10.59l.33-.86c.38-.16.51-.6.38-1.33-.06-.66.09-1.14.45-1.44.29-.16.49-.05.61.35.23-.38.49-.49.78-.33.28.04.57.08.85.14l.38-.52c.28-.96,1.59-.5,1.55.58Z"/>
            <g>
              <path class="cls-2" d="M15,35.27c-.08.9-.17,1.79-.06,2.79l-.69.29c-.05-.09-.04-.2-.07-.32-.03-1.35.13-2.74.54-4.03.3.35.32.82.28,1.26Z"/>
              <path class="cls-50" d="M20.66,42.34c.48.43.81,1.28.89,1.86-.2,1.2-1.04,2.34-2.06,2.26-.4.09-.94-.62-.85-1.01-.15-.35-.04-1.24.52-1.25l1.58.77c-.28-.97-.83-1.64-1.43-2.5.5-.28.93-.15,1.34-.12Z"/>
              <path class="cls-40" d="M17.98,40.05c-.49.26-.72-.12-.7-1.14-.06-.34-.31-.13-.41.11-.04.52-.21.85-.51.99-.45.17-.39-.49-.31-.86.13-.57.57-1.48,1.22-1.28.34-.24,1.05-.16,1.16.36.14.68-.19,1.3-.46,1.82Z"/>
              <path class="cls-1" d="M17.98,40.05c-.16.3-.6.26-.9.34-.25.18-1.07.06-.71-.38-.01-.49.11-1.5.7-1.6.99-.17.32,1.92.91,1.64Z"/>
              <path class="cls-24" d="M17.28,37.87c-.58.06-.87.62-1.09,1.15-.18.46-.12.69.17.98.19.19.36.48.71.38.12.02.28-.01.39.19-.43.08-.69-.02-1.07-.18l-.25.56c-.69-1.41.18-3.29.85-3.27.09,0,.2.07.28.17Z"/>
              <path class="cls-67" d="M17.62,34.91c.05.24.02.45-.11.7-.09.17-.34.19-.63.05l-.41.1c-.1.02-.1-.34-.09-.46.17-.18.29-.47.53-.63.29-.19.52.13.7.24Z"/>
            </g>
          </g>
          <path class="cls-29" d="M19.5,46.46c.14.09.24.17.55.2-.12.22-.29.17-.43.17-.55-.21-.95-.69-1.17-1.22l.19-.16c.18.44.46.77.85,1.01Z"/>
          <path class="cls-21" d="M22.05,31.22c-.43.43-1.42,1-2.16.67-.74-.6-.42-1.92-.76-2.63-.18-1.05,1.1-1.76,1.97-1.09.68.53,1.52,2.23.95,3.04Z"/>
          <path class="cls-35" d="M21.64,35.85c.34.58-.1,1.58-.6,1.97-.18-.04-.25-.17-.33-.26-.37-.25-.32-.59-.1-.99.26-.48.6-.85,1.04-.72Z"/>
          <g>
            <path class="cls-51" d="M25.17,21.92l.03.37c-.51.25-.7.47-.55.66.61-.36.46.07.09.49l-.06.53c.22.2.55,1.75.34,1.95-.11.1-.28.1-.43.08-.67-.59-1.02-1.34-.64-2.12.03-.05-.1-.18-.26-.26-.29.96-.23,2,.6,2.9-.57,1.2-.59,2.46-.71,3.78-.14.51-.83.87-1.12,1.21-.09-.1-.19-.2-.24-.33-.09-.16-.1-.35-.03-.56,1.23-2.5-.91-4.06-2.89-2.13l-.35-.06c-.15,0-.36-.04-.36-.14-.05-.94.85-2.69,1.64-3.11l-.14-.44c.47-.51.64-.88.51-1.1l2.47-1.76c1.1-.78,3.57-2.89,3.76-2.1.02.1-.03.2-.18.33l-1.46,1.29c-.16.15-.18.46,0,.55Z"/>
            <path class="cls-40" d="M22.22,31.17s-.13.02-.17.06l-.31-1.6-1.03-1.39c-.81-.05-1.32.44-1.58,1.03-.21.48-.32.93-.39,1.57-.16-.45-.13-.93-.06-1.37.05-.32.31-.72.26-1.06.76-1,2.43-1.66,3.42-.64.92.95.49,2.47-.14,3.39Z"/>
            <path class="cls-22" d="M25.3,22.59c.77-.36.99.45.14.4-.4-.11-.64.65-.77.97-.13-.3-.24-.64.25-.9-.03-.09-.18-.13-.28-.11.08-.36.51-.25.66-.35Z"/>
            <path class="cls-64" d="M22.21,26.31c-.13-.11-.33-.4-.4-.58.03-.2.27-.23.37-.26.16-.05.42,0,.4.28-.01.15-.05.34-.36.56Z"/>
          </g>
          <path class="cls-33" d="M28.33,24.11c-.9-.54-1.87-.86-2.88-1.12.06-.1.24-.26.22-.33-.02-.1-.31-.1-.37-.06,1.06-.74,2.89-.2,3.08.48.09.35.04.7-.06,1.03Z"/>
        </g>
        <g>
          <path class="cls-59" d="M31.2,60.7l.27-.15c.6.19,1.18.44,1.74.74.53-.52,1.05-.64,1.58-.37.16-.61.41-.35.63.15l.23-.14c.86.36,1.75.63,2.66.8l4.28-.07.26.34c.08-.54,1.4-.72,1.61-.23.68.28.13.69-.39.91l-3.78,1.04c.21.17.4.1.55.16-1.95.27-3.92.25-5.88,0-.66-.57-1.37-1.15-2.12-1.73-.76-.4-1.49-.81-2.19-1.24-.06-.3.12-.37.55-.21Z"/>
          <path class="cls-20" d="M26.9,59.19c.33.04.76.01,1.04.19.06-.08.14-.1.23-.11.19-.03,2.89,1.02,3,1.18.04.06.04.15.03.25-.07,0-.22-.06-.36.12,1.48.45,2.8,1.35,3.94,2.48.17.16.19.38.17.58-2.35-.29-4.61-.93-6.81-2.01-1.71-.83-3.29-1.71-4.69-2.9-.2-.34-.05-.48.33-.46l3.12.68Z"/>
          <path class="cls-32" d="M39.72,55.35c.08.13.12.28.09.43-.05.29-1.49,1.07-1.83,1.26l2.26,1.03.22.47c0,.22-.12.33-.36.35-.08.47-.3.65-.65.52-.15.23-.41.31-.77.24-.45.29-.89.45-1.3.47l-.09.42c.31.9-1.13.82-1.7.37l-.18.16c-.17-.08-.45-.18-.63-.15-1.65.04-1.77-1.6-.33-2.18v-.2c-.47-.14-.69-.25-.28-.7.84-.22,1.64-.53,2.39-.92-.28-.21-.3-.4-.04-.65l3.2-.92Z"/>
          <path class="cls-8" d="M43.04,53.98c1.02-.13.39.98-.06,1.48-.17,1.14-.5,1.52-.97,1.14-.29-.07-1.28.65-.78.85l-.1.38c.27-.22.59-.09.97.38.59-.06,1.04.16.58.64-.22.52-1.92.22-2.02-.33-.05.16-.11.17-.19.02-1.05-.45-2.17-.83-3.16-1.51.95-.55,1.84-.9,2.41-1.66.58-.17,1.12-.6,1.6-.95.06.11.23.15.42.07l1.28-.49Z"/>
          <path class="cls-7" d="M34.45,58.54c.13.01.33.03.54.19-.58.26-1.23.71-1.21,1.41.28.39.73.47,1.01.77l-.61.1-.37.36c-.13.13-.43-.05-.6-.08-.14-.17-.47-.32-1.01-.45l-1.6-.77c-.64-.29-.97-.7-.98-1.21l.18-.04c.01-.36.34-.53,1-.51.93.07,1.96.06,2.8-.35.11-.66.7-.18.54.44l.31.15Z"/>
          <path class="cls-44" d="M34.45,58.54l-.65-.07.07-.41c.02-.11-.17-.13-.27-.1-.05.11-.1.1-.16-.02-.72,0-1.83-.2-1.76-1.09.48.05.96.01,1.41-.1,1.16,0,2.32-.17,3.42-.49.07.3.34.46.72.74-1.03.55-2.07.9-3.16,1.21l.37.33Z"/>
          <path class="cls-65" d="M29.62,58.86c.99.94,2.19,1.55,3.48,2.23.2-.21.46.12.11.2-.69-.13-1.35-.36-2.02-.59l-2.66-.94-.6-.39c.38-.54,1.13-.4,1.69-.52Z"/>
          <path class="cls-7" d="M33.1,56.75c-.29.3-.76.19-1.27.21.48.53,1.11.62,1.61.98-1.77.55-2.84.32-3.97-1.2l3.63.02Z"/>
          <path class="cls-9" d="M55.4,55.22c-.21.07-.37-.01-.48-.25l-2.33,2.1-.41-.09c-1.11.33-2.32.66-3.45.61l-.02-1.34c-.25.05-.43-.14-.55-.57-1.84-1.21-3.92.45-3.88,2.49.41-.04,1.03.6.99,1.01.47-.05.86-.01,1.19.12.31-.04.42-.02.21.24-.43.75-2.07.2-2.61-.39-.69.15-1.15.05-1.38-.31-.02-.1-.07-.25-.14-.32-.06-.06-.29.03-.41.14l-.99-.85c-.31-.44.47-1.51.88-1.23.77-.13.19-1.03,1.08-1.85.23-.21.18-.6-.05-.77.36-.14.64-.39,1.05-.24.44.16.54.5.58,1.03.77-.62,1.34-1.03,2.12-1.36l.24.52c.65.24,1.11-.14,1.68-.28l2.75-.63c.2.27.41.36.65.26,0,.05,0,.23.03.29.03.06.23.02.34.02,1.84-.08,3.32-.94,4.87-1.8l-1.95,3.41Z"/>
          <path class="cls-36" d="M55.4,55.22c-.25.44-.56,1-.91,1.35l-2.17,2.1c-2.48,1.87-5.34,3.21-8.25,4.01.32-.23.35-.58.39-.91-.24-.21-.44-.46-.61-.74l.06-.42c1.04-.34,2.08-.64,3.14-.89l.44.18.27-.48c1.36-.55,2.61-1.32,3.73-2.26l.69-.16,2.98-2.68.24.92Z"/>
          <g>
            <path class="cls-63" d="M54.77,56.84c-.35.33-.5.14-.28-.27-.25-.4.43-1.48.91-1.35.1-.88.45-1.72,1.04-2.51-1.33.67-2.77,1.31-4.3,1.22-.13-.14-.14-.35-.03-.63-.18-.19-.4-.28-.65-.26l-.27.41c-.16.08-3.34.9-3.52.91-.56.01-.76-.07-1.15-.43l-1.55,1.04c-.37.09-.66-.19-.87-.82l-.33-.1c-.32.18-.57.16-.75-.06.12.59-1.9,1.27-1.71.42l1.91-1.38c1.42-1.22,2.58-2.6,3.47-4.15l.42-.35,5.88-3.05c.06,1.34-.79,2.49-.48,3.78l2.51-4.03c.32-.52.6-1.12,1.12-1.45l1.64-1.04,3.87-2.49c-.06,6.28-2.56,12.3-6.89,16.6Z"/>
            <g>
              <path class="cls-31" d="M47.13,48.52c-.1.45-.18.93-.53,1.33-1.03,1.18-2.02,2.49-3.36,3.16,1.02-1.26,1.97-2.56,2.87-4,.2-.32.78-.37,1.02-.49Z"/>
              <path class="cls-54" d="M55.79,50.15c-.34-.58.08-.9.31-1.29l1.79-3.08c.3,1.75-.58,3.38-2.09,4.37Z"/>
              <path class="cls-61" d="M49.91,50.7c-.49.28-.56-1.19.79-1.91.15-.08.35-.07.43-.02.46.26-.34,1.42-1.23,1.93Z"/>
              <path class="cls-28" d="M52.11,53.29c-.15.68-1.14,1.88-1.36,1.15.49-.37.6-.88.71-1.41.05-.25.53-.59.81-.58.06.36-.11.6-.17.84Z"/>
              <path class="cls-23" d="M48.83,52.12c-.18.13-.39-.19-.37-.41.02-.17-.03-.56.25-.56.21.15.4.32.44.43.04.11-.02.32-.32.54Z"/>
            </g>
          </g>
          <path class="cls-43" d="M42.68,58.84l1.52-.04c.69.79,1.53.74,2.47.73.24-.65,1.72-.33.82.36-.46.18-.91.48-1.54.49-.78,0-1.5.31-2.1.64.12.31-.09.48-.61.49-.03.26-.07.41-.39.47l-4.11.09c-1.2.03-2.32-.53-3.32-1.02-.21-.4-.18-1.15.38-1.17.2.14.11.7,0,.93.54.15.93.09,1.38-.09-.09-.36.12-.52.21-.62.4.16.51.42.28.78.84.18,1.67.07,2.35-.48-.41-.23-.24-.64.16-.77-.3-.37.18-.89.49-1.14l2.02.33Z"/>
          <path class="cls-7" d="M43.85,61.02c.23,0,.46,0,.66.18s-.03.4-.05.56l-1.61.23c0-.31.02-.71.27-.78l.73-.19Z"/>
          <path class="cls-34" d="M39.46,59.4c.25-.41.59-.12.71.24.06.24-.05.52-.16.77-.59.56-1.57.69-2.35.48-.21-.19-.29-.41-.28-.78.52-.59,1.25-1.06,2.07-.71Z"/>
          <path class="cls-26" d="M40.47,58.52s.14-.01.19-.02c.16.52-.26.82-.49,1.14-.33.11-.53-.16-.71-.24.19-.17.24-.46.37-.7s.48-.22.64-.18Z"/>
          <path class="cls-38" d="M42.01,56.59c-.49.08-.38.88-.88,1.23-.18-.16-.44-.4-.43-.63.02-.3.44-.37.65-.56l.39-.35c.07-.06.24.21.26.32Z"/>
          <path class="cls-27" d="M48.02,57.82c-.19,1.02-1.77,1.49-2.75,1.36-.47-.19-.8-.54-.99-1.01-.04-.43.04-.77.28-1.13.07-.11,1.74-1.62,1.86-1.67.55-.25,1.66-.07,1.91.55.12.31.02,1.72-.31,1.91Z"/>
          <path class="cls-42" d="M52.18,56.98c-1.51,1.36-2.77,2.15-4.7,2.91-.02-.23.15-.39-.3-.46-.19-.07-.39-.03-.53.11l-.21-.24c0-.1,0-.18.05-.21.07-.05,1.37-.83,1.45-.82s.16.05.23.09l.22-1.23c-.06-.43.05-.72.32-.87.12.28.28.54.15,1.16.49-.27.97-.2,1.52-.32.61-.13,1.2-.4,1.79-.11Z"/>
          <path class="cls-40" d="M48.72,56.25c.13.8,0,1.51-.53,2.1-.52.12-.46-.17-.16-.53-.13-.61-.11-1.17.14-1.77-.03-.48-.74-.5-1.05-.54-.57-.07-.66.41-1.01.67-.78.57-1.5,1.08-1.82,1.98-.56-1.4.52-2.85,2.02-3.13,1.15-.22,1.99.21,2.42,1.21Z"/>
          <path class="cls-3" d="M48.18,58.35c-.44.49-1.08.72-1.73.94-.39.14-.83.03-1.19-.12l1.53-.36,1.22-1,.16.53Z"/>
          <path class="cls-60" d="M37.66,60.9l2.35-.48c-.2.47-.47.69-.92.77-.57.1-1.03.06-1.42-.29Z"/>
        </g>
        <g>
          <path class="cls-52" d="M33.17,51.03l.36.96c-7.4,2.57-17.49,5.7-25.42,5.58-4-.06-9.25-1.44-7.1-6.39l.56-.78c.29.13.48-.39.66-.44.65-.16,1.47-.22,1.76-.86.06.85-.05,1.92.63,2.62,1.72,1.78,6.9,2.82,9.38,2.59s4.77-.6,7.21-1.01l9.99-1.67,1.98-.61Z"/>
          <path class="cls-63" d="M57.79,40.91c-10.4,6.51-22.24,11.46-34.11,14.9l-3.73.88c-.33.34-11.26,2.69-17,.66-1.27-.57-2.5-1.44-2.84-2.84-.4-1.67.38-3.18,1.27-4.52,2.92-4.43,6.18-7.4,10.45-10.56.13.1.12.26.07.35-1.5,1.31-3.14,2.59-4.4,4.16-.63.35-1.19.87-1.68,1.55l-.41-.07c.06.45-.14.91-.6,1.38-.96.87-1.76,1.83-2.41,2.89-.3.22-.58.46-.84.72.48.09.39.49-.09.54-2.1,5.02,2.71,6.2,6.84,6.3,7.74.19,17.24-2.71,24.54-5.35l-.43-.3c-5.99,1.32-12.15,2.34-18.4,3.08-2.52.3-8.01-.86-9.74-2.78-.62-.69-.82-2.02-.3-2.77.04-.56.5-.47.4.09-.1.41-.14.71.03,1.21,1.71,5.24,15.01,2.3,20.18.94,7.32-1.93,14.23-4.68,21.03-7.94l6.09-3.22c3.49-1.84,6.67-4.04,9.71-6.44,2.12-1.67,4.15-3.48,5.79-5.71,1.4-1.91,2.53-4.42.93-6-1.82-1.8-5.05-1.97-7.76-1.98-1.32,0-2.57.34-3.93-.09,4.57-.76,10.58-.95,14.58.88,1.94.89,2.87,2.85,2.31,4.91-1.61,5.95-10.32,11.87-15.55,15.15Z"/>
          <path class="cls-5" d="M5.74,46.11c-.72.89-1.09,2-1.36,3.09-.04-.08-.34-.19-.4-.09-.07.75-.62,1.14-1.65,1.18-.26.38-.55.62-.78.12l1.27-2.06,1.38-1.37c.49-.48.74-1.09,1.2-1.55.61-.49.72-.26.33.69Z"/>
        </g>
      </g>
      <path class="cls-47" d="M27.91,14.14c-.66.21-1.13.13-1.61.5-.43.33-.53.85-.74,1.6-.29-.6-.3-1.16-.67-1.52-.49-.48-1.13-.49-1.84-.5.35-.33.88-.24,1.29-.4.99-.38,1.07-1.33,1.21-2.33.19.67.08,1.38.52,1.9s1.06.53,1.84.74Z"/>
      <path class="cls-19" d="M50.45,12.03c-.22-.31-.43-.59-.79-.77.36-.27.49-.48.64-.79.24.36.41.56.76.78-.23.18-.42.27-.61.78Z"/>
      <path class="cls-19" d="M57.51,17.19l-.74-.61.66-.76.67.76c-.23.11-.43.24-.59.6Z"/>
      <circle class="cls-12" cx="16.69" cy="19.84" r=".38"/>
    </g>
  </g>
</svg>