<?xml version="1.0" encoding="UTF-8"?>
<svg id="Layer_3" xmlns="http://www.w3.org/2000/svg" xmlns:xlink="http://www.w3.org/1999/xlink" version="1.1" viewBox="0 0 32 32">
  <!-- Generator: Adobe Illustrator 30.3.0, SVG Export Plug-In . SVG Version: 2.1.3 Build 182)  -->
  <defs>
    <style>
      .st0 {
        fill: url(#linear-gradient2);
      }

      .st1 {
        fill: url(#linear-gradient1);
      }

      .st2 {
        fill: url(#linear-gradient);
      }
    </style>
    <linearGradient id="linear-gradient" x1="6" y1="12.7" x2="26.2" y2="12.7" gradientUnits="userSpaceOnUse">
      <stop offset="0" stop-color="#0ea9eb"/>
      <stop offset="1" stop-color="#c46cd9"/>
    </linearGradient>
    <linearGradient id="linear-gradient1" x1="9" y1="20.9" x2="27.1" y2="20.9" xlink:href="#linear-gradient"/>
    <linearGradient id="linear-gradient2" x1="0" y1="14.6" x2="31.9" y2="14.6" xlink:href="#linear-gradient"/>
  </defs>
  <path class="st2" d="M10.7,19.1s0,0,0,0c-.5-.9-.8-1.9-.8-3,0-3.6,2.9-6.5,6.5-6.5s5.4,1.9,6.2,4.6c1.2-.7,2.4-1.4,3.5-2.3-1.6-3.7-5.3-6.3-9.7-6.3s-10.5,4.7-10.5,10.5.3,2.6.7,3.8c1.5-.2,3.1-.5,4-.8Z"/>
  <path class="st1" d="M25.1,16.5c-.8.5-1.6.9-2.4,1.4-.8,2.7-3.3,4.6-6.2,4.6s-1.9-.2-2.8-.6c-1.1.4-2.3.8-3.5,1.1l-1.4.3c1.9,2,4.6,3.2,7.6,3.2,5.8,0,10.5-4.7,10.5-10.5s0-.5,0-.7c-.7.5-1.3.9-1.9,1.3Z"/>
  <path class="st0" d="M25.1,15.5c-4.5,2.8-9.6,5-14.8,6.5l-1.6.4c-.1.1-4.9,1.2-7.4.3-.6-.2-1.1-.6-1.2-1.2s.2-1.4.6-2c1.3-1.9,2.7-3.2,4.5-4.6,0,0,0,.1,0,.2-.7.6-1.4,1.1-1.9,1.8-.3.2-1.3,2-1.3,2.3,0,.2,0,.3,0,.5.7,2.3,6.5,1,8.8.4s6.2-2,9.1-3.4l2.6-1.4c1.5-.8,2.9-1.8,4.2-2.8s1.8-1.5,2.5-2.5,1.1-1.9.4-2.6-2.2-.9-3.4-.9-1.1.1-1.7,0c2-.3,4.6-.4,6.3.4s1.2,1.2,1,2.1c-.7,2.6-4.5,5.1-6.7,6.6Z"/>
</svg>